<mxfile host="Electron" modified="2024-03-29T01:15:49.314Z" agent="Mozilla/5.0 (Windows NT 10.0; Win64; x64) AppleWebKit/537.36 (KHTML, like Gecko) draw.io/24.1.0 Chrome/120.0.6099.109 Electron/28.1.0 Safari/537.36" etag="IYdX1IocTNscuFmWclRM" version="24.1.0" type="device">
  <diagram id="R2lEEEUBdFMjLlhIrx00" name="Page-1">
    <mxGraphModel dx="1509" dy="880" grid="0" gridSize="12" guides="1" tooltips="1" connect="1" arrows="1" fold="1" page="1" pageScale="1" pageWidth="1100" pageHeight="850" math="0" shadow="1" extFonts="Permanent Marker^https://fonts.googleapis.com/css?family=Permanent+Marker">
      <root>
        <mxCell id="0" />
        <mxCell id="1" parent="0" />
        <mxCell id="2twj1QkoY8skWlOzFEAI-20" value="Entity" style="swimlane;childLayout=stackLayout;horizontal=1;startSize=50;horizontalStack=0;rounded=1;fontSize=18;fontStyle=0;strokeWidth=2;resizeParent=0;resizeLast=1;shadow=0;dashed=0;align=center;arcSize=4;whiteSpace=wrap;html=1;fillColor=#d5e8d4;strokeColor=#82b366;gradientColor=none;swimlaneFillColor=default;swimlaneLine=1;glass=0;labelBackgroundColor=none;labelBorderColor=none;textShadow=0;" vertex="1" parent="1">
          <mxGeometry x="258" y="87" width="160" height="120" as="geometry" />
        </mxCell>
        <mxCell id="2twj1QkoY8skWlOzFEAI-21" value="&lt;font style=&quot;font-size: 16px;&quot;&gt;+Attribute1&lt;br&gt;+Attribute2&lt;br&gt;+Attribute3&lt;/font&gt;" style="align=left;strokeColor=none;fillColor=none;spacingLeft=4;fontSize=12;verticalAlign=top;resizable=0;rotatable=0;part=1;html=1;" vertex="1" parent="2twj1QkoY8skWlOzFEAI-20">
          <mxGeometry y="50" width="160" height="70" as="geometry" />
        </mxCell>
        <mxCell id="2twj1QkoY8skWlOzFEAI-32" value="Entity" style="swimlane;childLayout=stackLayout;horizontal=1;startSize=50;horizontalStack=0;rounded=1;fontSize=18;fontStyle=0;strokeWidth=2;resizeParent=0;resizeLast=1;shadow=0;dashed=0;align=center;arcSize=4;whiteSpace=wrap;html=1;fillColor=#d5e8d4;strokeColor=#82b366;gradientColor=none;swimlaneFillColor=default;swimlaneLine=1;glass=0;labelBackgroundColor=none;labelBorderColor=none;textShadow=0;" vertex="1" parent="1">
          <mxGeometry x="270" y="99" width="160" height="120" as="geometry" />
        </mxCell>
        <mxCell id="2twj1QkoY8skWlOzFEAI-33" value="&lt;font style=&quot;font-size: 16px;&quot;&gt;+Attribute1&lt;br&gt;+Attribute2&lt;br&gt;+Attribute3&lt;/font&gt;" style="align=left;strokeColor=none;fillColor=none;spacingLeft=4;fontSize=12;verticalAlign=top;resizable=0;rotatable=0;part=1;html=1;" vertex="1" parent="2twj1QkoY8skWlOzFEAI-32">
          <mxGeometry y="50" width="160" height="70" as="geometry" />
        </mxCell>
        <mxCell id="2twj1QkoY8skWlOzFEAI-34" value="Entity" style="swimlane;childLayout=stackLayout;horizontal=1;startSize=50;horizontalStack=0;rounded=1;fontSize=18;fontStyle=0;strokeWidth=2;resizeParent=0;resizeLast=1;shadow=0;dashed=0;align=center;arcSize=4;whiteSpace=wrap;html=1;fillColor=#d5e8d4;strokeColor=#82b366;gradientColor=none;swimlaneFillColor=default;swimlaneLine=1;glass=0;labelBackgroundColor=none;labelBorderColor=none;textShadow=0;" vertex="1" parent="1">
          <mxGeometry x="282" y="111" width="160" height="120" as="geometry" />
        </mxCell>
        <mxCell id="2twj1QkoY8skWlOzFEAI-35" value="&lt;font style=&quot;font-size: 16px;&quot;&gt;+Attribute1&lt;br&gt;+Attribute2&lt;br&gt;+Attribute3&lt;/font&gt;" style="align=left;strokeColor=none;fillColor=none;spacingLeft=4;fontSize=12;verticalAlign=top;resizable=0;rotatable=0;part=1;html=1;" vertex="1" parent="2twj1QkoY8skWlOzFEAI-34">
          <mxGeometry y="50" width="160" height="70" as="geometry" />
        </mxCell>
        <mxCell id="2twj1QkoY8skWlOzFEAI-36" value="Entity" style="swimlane;childLayout=stackLayout;horizontal=1;startSize=50;horizontalStack=0;rounded=1;fontSize=18;fontStyle=0;strokeWidth=2;resizeParent=0;resizeLast=1;shadow=0;dashed=0;align=center;arcSize=4;whiteSpace=wrap;html=1;fillColor=#d5e8d4;strokeColor=#82b366;gradientColor=none;swimlaneFillColor=default;swimlaneLine=1;glass=0;labelBackgroundColor=none;labelBorderColor=none;textShadow=0;" vertex="1" parent="1">
          <mxGeometry x="294" y="123" width="160" height="120" as="geometry" />
        </mxCell>
        <mxCell id="2twj1QkoY8skWlOzFEAI-37" value="&lt;font style=&quot;font-size: 16px;&quot;&gt;+Attribute1&lt;br&gt;+Attribute2&lt;br&gt;+Attribute3&lt;/font&gt;" style="align=left;strokeColor=none;fillColor=none;spacingLeft=4;fontSize=12;verticalAlign=top;resizable=0;rotatable=0;part=1;html=1;" vertex="1" parent="2twj1QkoY8skWlOzFEAI-36">
          <mxGeometry y="50" width="160" height="70" as="geometry" />
        </mxCell>
        <mxCell id="2twj1QkoY8skWlOzFEAI-38" value="Entity" style="swimlane;childLayout=stackLayout;horizontal=1;startSize=50;horizontalStack=0;rounded=1;fontSize=18;fontStyle=0;strokeWidth=2;resizeParent=0;resizeLast=1;shadow=0;dashed=0;align=center;arcSize=4;whiteSpace=wrap;html=1;fillColor=#d5e8d4;strokeColor=#82b366;gradientColor=none;swimlaneFillColor=default;swimlaneLine=1;glass=0;labelBackgroundColor=none;labelBorderColor=none;textShadow=0;" vertex="1" parent="1">
          <mxGeometry x="306" y="135" width="160" height="120" as="geometry" />
        </mxCell>
        <mxCell id="2twj1QkoY8skWlOzFEAI-39" value="&lt;font style=&quot;font-size: 16px;&quot;&gt;+Attribute1&lt;br&gt;+Attribute2&lt;br&gt;+Attribute3&lt;/font&gt;" style="align=left;strokeColor=none;fillColor=none;spacingLeft=4;fontSize=12;verticalAlign=top;resizable=0;rotatable=0;part=1;html=1;" vertex="1" parent="2twj1QkoY8skWlOzFEAI-38">
          <mxGeometry y="50" width="160" height="70" as="geometry" />
        </mxCell>
        <mxCell id="2twj1QkoY8skWlOzFEAI-40" value="Entity" style="swimlane;childLayout=stackLayout;horizontal=1;startSize=50;horizontalStack=0;rounded=1;fontSize=18;fontStyle=0;strokeWidth=2;resizeParent=0;resizeLast=1;shadow=0;dashed=0;align=center;arcSize=4;whiteSpace=wrap;html=1;fillColor=#d5e8d4;strokeColor=#82b366;gradientColor=none;swimlaneFillColor=default;swimlaneLine=1;glass=0;labelBackgroundColor=none;labelBorderColor=none;textShadow=0;" vertex="1" parent="1">
          <mxGeometry x="318" y="147" width="160" height="120" as="geometry" />
        </mxCell>
        <mxCell id="2twj1QkoY8skWlOzFEAI-41" value="&lt;font style=&quot;font-size: 16px;&quot;&gt;+Attribute1&lt;br&gt;+Attribute2&lt;br&gt;+Attribute3&lt;/font&gt;" style="align=left;strokeColor=none;fillColor=none;spacingLeft=4;fontSize=12;verticalAlign=top;resizable=0;rotatable=0;part=1;html=1;" vertex="1" parent="2twj1QkoY8skWlOzFEAI-40">
          <mxGeometry y="50" width="160" height="70" as="geometry" />
        </mxCell>
      </root>
    </mxGraphModel>
  </diagram>
</mxfile>
